<?xml version="1.0" encoding="utf-8"?>
<!-- Generator: Adobe Illustrator 19.0.0, SVG Export Plug-In . SVG Version: 6.00 Build 0)  -->
<svg version="1.1" id="Layer_1" xmlns="http://www.w3.org/2000/svg" xmlns:xlink="http://www.w3.org/1999/xlink" x="0px" y="0px"
	 viewBox="-102 -102 304 304" style="enable-background:new -102 -102 304 304;" xml:space="preserve">
<g>
	<path d="M81.5,70.6H55v42.5h38.6l17.3,56.9h54.6L127.4,62H78.8C79.7,64.8,80.6,67.7,81.5,70.6z"/>
	<path d="M45-14.7V-70H18.8L-24.1,52h49C33.9,22.8,40.6,0.6,45-14.7z"/>
	<path d="M75.7,52h48.2L80.8-70H55v55.1C57.5-6.9,64.4,15.5,75.7,52z"/>
	<path d="M19.2,70.6c0.9-2.9,1.8-5.8,2.7-8.6h-49.4l-38,108h54.6l17.3-56.9H45V70.6H19.2z"/>
	<polygon points="-102,52 -102,62 -27.6,62 -24.1,52 	"/>
	<polygon points="202,52 123.9,52 127.4,62 202,62 	"/>
	<rect x="45" y="113.1" width="10" height="88.9"/>
	<rect x="45" y="-102" width="10" height="32"/>
	<path d="M55-14.9c-0.2-0.8-0.4-1.4-0.6-1.9c-2-6.8-3.5-12.1-4.3-16C49-28.7,47.3-22.6,45-14.7V52H24.9c-1,3.2-2,6.6-3.1,10H45v8.6
		h10V62h23.8c-1.1-3.4-2.1-6.8-3.1-10H55V-14.9z"/>
</g>
</svg>
